HIERARCHY
ROOT ui
{
	 OFFSET 0 0 0
	 CHANNELS 3 XPosition YPosition Z Position
	 EndSite
	 {
	 OFFSET 0 -1 0
	 }
}
ROOT li
{
	 OFFSET 0 0 0
	 CHANNELS 3 XPosition YPosition Z Position
	 EndSite
	 {
	 OFFSET 0 -1 0
	 }
}
ROOT ul
{
	 OFFSET 0 0 0
	 CHANNELS 3 XPosition YPosition Z Position
	 EndSite
	 {
	 OFFSET 0 -1 0
	 }
}
ROOT ll
{
	 OFFSET 0 0 0
	 CHANNELS 3 XPosition YPosition Z Position
	 EndSite
	 {
	 OFFSET 0 -1 0
	 }
}
ROOT tt
{
	 OFFSET 0 0 0
	 CHANNELS 3 XPosition YPosition Z Position
	 EndSite
	 {
	 OFFSET 0 -1 0
	 }
}
ROOT tb
{
	 OFFSET 0 0 0
	 CHANNELS 3 XPosition YPosition Z Position
	 EndSite
	 {
	 OFFSET 0 -1 0
	 }
}
ROOT td
{
	 OFFSET 0 0 0
	 CHANNELS 3 XPosition YPosition Z Position
	 EndSite
	 {
	 OFFSET 0 -1 0
	 }
}
ROOT v
{
	 OFFSET 0 0 0
	 CHANNELS 3 XPosition YPosition Z Position
	 EndSite
	 {
	 OFFSET 0 -1 0
	 }
}
ROOT bn
{
	 OFFSET 0 0 0
	 CHANNELS 3 XPosition YPosition Z Position
	 EndSite
	 {
	 OFFSET 0 -1 0
	 }
}
MOTION
Frames: 16
Frame Time: 0.002
-0.0011252069473266602	-3.340049982070923E-4	0		0.5140394897460937	-2.462102783203125	0		-1.075814208984375	-0.05760902786254883	0		-0.84832275390625	-2.39623095703125	0		1.3970604248046874	-0.815641357421875	0		3.283383056640625	-0.3381989135742188	0		4.778544921875	-0.331515625	0		5.55109375	0.08107789611816406	0		-0.058954658508300783	5.97165283203125	0		
-0.02324161911010742	0.0025893940925598145	0		0.517832763671875	-2.460480224609375	0		-1.073966796875	-0.05791416931152344	0		-0.8325828247070313	-2.3996962890625	0		1.3988839111328124	-0.816024658203125	0		3.285221923828125	-0.33864178466796874	0		4.7693955078125	-0.3308854064941406	0		5.54803369140625	0.08861760711669922	0		-0.040797214508056644	5.9821396484375	0		
0.005568511009216308	0.0019579659700393677	0		0.5216046752929687	-2.457853271484375	0		-1.0681241455078125	-0.055262371063232424	0		-0.8987171020507813	-2.388261962890625	0		1.381716552734375	-0.8121934204101563	0		3.2952314453125	-0.3201634521484375	0		4.79116357421875	-0.3345812377929688	0		5.563923828125	0.0949640655517578	0		-0.03880905151367187	5.98180517578125	0		
-0.015632420539855956	0.005882690906524659	0		0.5253137817382812	-2.456217529296875	0		-1.0663719482421874	-0.055561439514160156	0		-0.8180437622070312	-2.3904345703125	0		1.4054359130859375	-0.8138006591796875	0		3.29282275390625	-0.33453549194335935	0		4.7770078125	-0.3258630676269531	0		5.56568017578125	0.09448589324951172	0		-0.03689388656616211	5.98147802734375	0		
-0.017998779296875	0.001611217975616455	0		0.5159984130859375	-2.450425537109375	0		-1.0646959228515624	-0.05585176467895508	0		-0.8263356323242188	-2.382621337890625	0		1.4040606689453126	-0.81711767578125	0		3.319567626953125	-0.3282076416015625	0		4.785599609375	-0.3333719177246094	0		5.5681943359375	0.07902455139160157	0		-0.05119172668457031	5.97033984375	0		
-0.01641297721862793	0.0013101119995117187	0		0.5434749755859375	-2.45602490234375	0		-1.067144287109375	-0.05908612060546875	0		-0.82480078125	-2.382905029296875	0		1.4025849609375	-0.821415771484375	0		3.292015625	-0.3402590026855469	0		4.78717822265625	-0.3337757263183594	0		5.5597822265625	0.07871448516845703	0		-0.05046720504760742	5.97105078125	0		
-0.014930259704589844	0.0010259710550308227	0		0.52584716796875	-2.46210888671875	0		-1.05567431640625	-0.060461502075195316	0		-0.8463716430664062	-2.383919677734375	0		1.404052490234375	-0.82172607421875	0		3.299513671875	-0.33867062377929685	0		4.78865478515625	-0.3341483459472656	0		5.5612666015625	0.07832762908935546	0		-0.03177597618103027	5.97957861328125	0		
-0.009514030456542968	0.004716123104095459	0		0.533258544921875	-2.45544921875	0		-1.0402818603515624	-0.058865978240966794	0		-0.8389591064453125	-2.3772392578125	0		1.3925457763671876	-0.8098699340820312	0		3.3128134765625	-0.34511962890625	0		4.77701171875	-0.3353436279296875	0		5.5758828125	0.09983090972900391	0		-0.029322713851928712	5.97830224609375	0		
0.018741481781005858	0.004171465873718262	0		0.53651806640625	-2.4527236328125	0		-1.0349813232421874	-0.055142833709716794	0		-0.7977453002929688	-2.37891748046875	0		1.4157802734375	-0.8113765869140624	0		3.324376220703125	-0.31751898193359374	0		4.800251953125	-0.33689263916015627	0		5.57306396484375	0.09256069183349609	0		-0.028968549728393553	5.980068359375	0		
-0.011162266731262208	2.91253000497818E-4	0		0.5506097412109375	-2.45509765625	0		-1.0578638916015626	-0.05709057235717773	0		-0.7986519165039062	-2.38111181640625	0		1.4108336181640626	-0.8185479125976562	0		3.281248046875	-0.3412860107421875	0		4.79241015625	-0.3350643310546875	0		5.5701259765625	0.08532647705078125	0		-0.04389241409301758	5.9690224609375	0		
-0.010145404815673827	8.744200319051742E-5	0		0.5147330322265625	-2.44389501953125	0		-1.050892333984375	-0.06135308456420899	0		-0.805541015625	-2.3712216796875	0		1.411844482421875	-0.81876220703125	0		3.298261474609375	-0.34169186401367185	0		4.7893583984375	-0.34125872802734375	0		5.5660546875	0.07713756561279297	0		-0.04283155059814453	5.96881884765625	0		
-0.009253046035766602	-9.638500213623046E-5	0		0.5334335327148437	-2.46028076171875	0		-1.123951171875	-0.056709095001220705	0		-0.8676683959960938	-2.371700927734375	0		1.3907449951171875	-0.8177090454101562	0		3.304073974609375	-0.34894830322265624	0		4.78823779296875	-0.3424455871582031	0		5.56203662109375	0.08497939300537109	0		-0.041907695770263674	5.96863525390625	0		
-0.008485763549804688	-2.6086899638175963E-4	0		0.5092381896972656	-2.45616943359375	0		-1.108162841796875	-0.055036582946777345	0		-0.862865234375	-2.3679072265625	0		1.4165301513671875	-0.8161565551757812	0		3.320072509765625	-0.32829248046875	0		4.78815966796875	-0.32861663818359377	0		5.5668818359375	0.0917504653930664	0		-0.024998159408569337	5.97929248046875	0		
-0.0037976229190826417	0.0035485730171203613	0		0.5299647216796874	-2.448539306640625	0		-1.0305238037109374	-0.05603647232055664	0		-0.8571709594726562	-2.363107177734375	0		1.41717236328125	-0.8163052978515625	0		3.30461669921875	-0.3372667236328125	0		4.795724609375	-0.335849853515625	0		5.57344775390625	0.08452676391601563	0		-0.04046317672729492	5.9683251953125	0		
-0.007317751884460449	-5.3473299741745E-4	0		0.5264420776367188	-2.452623046875	0		-1.039988037109375	-0.055052299499511716	0		-0.7837316284179687	-2.371045654296875	0		1.402796630859375	-0.8072685546875	0		3.33612744140625	-0.33874288940429687	0		4.79624853515625	-0.33598281860351564	0		5.57397216796875	0.08439299774169921	0		-0.03993294906616211	5.968197265625	0		
-0.00690825080871582	-6.461290121078491E-4	0		0.5449052124023438	-2.447935302734375	0		-1.0395784912109376	-0.055163318634033204	0		-0.8582627563476563	-2.365322998046875	0		1.4001614990234375	-0.8113468017578125	0		3.29557275390625	-0.335399658203125	0		4.79665771484375	-0.3360959777832031	0		5.56929296875	0.0763356704711914	0		-0.04051008224487305	5.9690966796875	0		
